<svg width="512" height="512" viewBox="0 0 512 512" fill="none" xmlns="http://www.w3.org/2000/svg">
<rect width="512" height="512" fill="#FF2E00"/>
<path d="M297.351 169.911C288.748 177.786 280.935 186.07 274.036 194.395C262.691 179.063 248.603 163.468 232.727 148.945C191.896 186.222 162.909 234.855 162.909 264.145C162.909 316.223 204.551 358.4 256 358.4C307.449 358.4 349.091 316.223 349.091 264.145C349.091 242.382 327.48 197.423 297.351 169.911ZM289.288 309.268C280.27 315.445 269.216 319.127 257.205 319.127C227.229 319.127 202.805 299.601 202.805 267.909C202.805 252.106 212.879 238.193 233.035 214.4C235.944 217.673 274.128 265.7 274.128 265.7L298.493 238.34C300.208 241.101 301.763 243.871 303.165 246.481C314.556 267.827 309.777 295.155 289.288 309.268Z" fill="white"/>
</svg>
